<svg width="77" height="76" viewBox="0 0 77 76" fill="none" xmlns="http://www.w3.org/2000/svg">
<path d="M47.6729 9.04981C45.9907 8.47256 45.013 7.36024 44.9904 6.03718C44.983 5.67273 45.0497 5.29838 45.1798 4.9193C45.3099 4.54022 45.4871 4.20381 45.7167 3.92066C46.5336 2.90337 47.9858 2.60724 49.6838 3.18991C51.3738 3.76986 52.3382 4.89527 52.3584 6.19982C52.3579 6.56156 52.2991 6.93863 52.169 7.3177C52.0389 7.69678 51.8617 8.03319 51.6321 8.31634C50.8179 9.32573 49.3709 9.63247 47.6729 9.04981ZM46.4749 5.36375C46.3855 5.62437 46.3437 5.87484 46.3468 6.12307C46.3633 6.94967 46.9509 7.68097 48.0171 8.04683C49.0674 8.40727 49.9749 8.20667 50.5087 7.55127C50.6636 7.35724 50.7844 7.13387 50.8738 6.87325C50.9633 6.61264 51.0051 6.36216 51.002 6.11394C50.9855 5.28733 50.4057 4.55874 49.3396 4.19288C48.2734 3.82702 47.3606 4.04341 46.84 4.68573C46.6852 4.87976 46.5644 5.10313 46.4749 5.36375Z" fill="white"/>
<path d="M51.5149 10.2158L52.3699 8.82044L57.4348 8.36951L57.5133 8.24137L54.0321 6.10806L54.5687 5.23241L59.1747 8.05501L58.2935 9.49307L53.2833 9.91873L53.2048 10.0469L56.6646 12.1671L56.128 13.0427L51.5149 10.2158Z" fill="white"/>
<path d="M57.9514 14.5256L60.3008 8.71854L61.3491 9.70017L59.4253 14.2587L59.1088 14.6944L59.2185 14.7971L59.6325 14.4527L64.0489 12.2284L65.1033 13.2158L59.4628 15.941L57.9514 14.5256Z" fill="white"/>
<path d="M61.4139 17.8712L66.1537 14.4515L68.8113 18.135L67.9649 18.7456L66.0792 16.132L64.9755 16.9283L66.8123 19.4742L65.9863 20.0702L64.1494 17.5243L63.0322 18.3304L64.9179 20.944L64.0715 21.5547L61.4139 17.8712ZM67.599 14.0573L68.322 15.0595L68.2777 15.7401L68.9327 15.9059L69.6606 16.9148L68.2367 16.5109L67.5381 15.5427L67.599 14.0573Z" fill="white"/>
<path d="M65.2478 23.7053L69.5685 21.6509L68.6112 19.6376L69.5688 19.1822L72.0463 24.3927L71.0887 24.8481L70.135 22.8423L65.8142 24.8967L65.2478 23.7053Z" fill="white"/>
<path d="M66.9541 27.3605L72.5993 25.8468L73.7757 30.2339L72.7676 30.5042L71.9329 27.3913L70.6184 27.7438L71.4315 30.7761L70.4476 31.0399L69.6345 28.0076L68.3038 28.3644L69.1385 31.4773L68.1305 31.7476L66.9541 27.3605Z" fill="white"/>
<path d="M68.4669 37.0983C68.4661 35.42 69.1919 34.3927 70.4443 34.392L70.5529 34.392L70.5536 35.7195L70.4784 35.7196C69.8105 35.7199 69.4601 36.2712 69.4605 37.1228C69.4609 37.7574 69.6281 38.2082 69.9204 38.375C70.029 38.4334 70.1459 38.4667 70.2795 38.4666C70.388 38.4666 70.4882 38.4498 70.58 38.3997C70.7887 38.2743 70.9305 37.9987 71.0054 37.4476L71.1467 36.2786C71.2631 35.4186 71.5467 34.9091 71.9891 34.6584C72.2145 34.5247 72.4817 34.4577 72.7906 34.4576C73.1079 34.4574 73.3918 34.5324 73.6423 34.6742C74.2855 35.0496 74.6616 35.9261 74.6623 37.1618C74.6632 38.8401 73.954 39.8507 72.7016 39.8514L72.593 39.8514L72.5923 38.5239L72.6675 38.5238C73.3354 38.5235 73.6691 38.0056 73.6687 37.1373C73.6684 36.5111 73.4928 36.0436 73.2088 35.8851C73.1086 35.8267 72.9917 35.7934 72.8581 35.7935C72.7495 35.7935 72.6577 35.8103 72.5659 35.8688C72.3572 35.9858 72.2154 36.2614 72.1406 36.8208L71.9992 37.9982C71.8828 38.8415 71.5908 39.3594 71.1568 39.6017C70.9231 39.7354 70.6476 39.8024 70.3386 39.8025C70.0214 39.8027 69.7291 39.7277 69.4785 39.5859C68.8354 39.2189 68.4676 38.334 68.4669 37.0983Z" fill="white"/>
<path d="M68.5838 40.7129L74.327 41.797L73.4845 46.2603L72.4589 46.0667L73.0568 42.8997L71.7194 42.6473L71.1371 45.7322L70.1361 45.5432L70.7185 42.4583L69.3647 42.2028L68.7669 45.3697L67.7413 45.1761L68.5838 40.7129Z" fill="white"/>
<path d="M59.0508 59.4815C60.3675 58.286 61.8134 57.9656 62.9835 58.5835C63.3063 58.7527 63.6022 58.9916 63.8716 59.2883C64.141 59.585 64.3503 59.9025 64.4877 60.2401C64.9852 61.4463 64.5446 62.8614 63.2156 64.0681C61.8927 65.2693 60.4418 65.5717 59.2891 64.9605C58.9725 64.7857 58.6704 64.5524 58.401 64.2557C58.1316 63.959 57.9223 63.6415 57.7849 63.3039C57.293 62.1039 57.7218 60.6883 59.0508 59.4815ZM62.8578 60.2088C62.6726 60.0048 62.4733 59.8475 62.2543 59.7305C61.5222 59.3465 60.5982 59.5088 59.7637 60.2665C58.9415 61.013 58.6799 61.9048 58.9967 62.6885C59.0921 62.9177 59.2295 63.1312 59.4148 63.3352C59.6 63.5392 59.7993 63.6965 60.0183 63.8135C60.7504 64.1975 61.6682 64.0408 62.5027 63.2831C63.3372 62.5253 63.5877 61.6212 63.2759 60.8555C63.1805 60.6263 63.043 60.4128 62.8578 60.2088Z" fill="white"/>
<path d="M56.1542 62.3017L56.9675 63.7218L54.9307 68.381L55.0054 68.5114L58.5484 66.4823L59.0588 67.3735L54.3711 70.0582L53.5329 68.5946L55.5655 63.9955L55.4908 63.8651L51.9696 65.8818L51.4592 64.9906L56.1542 62.3017Z" fill="white"/>
<path d="M49.2809 65.8811L53.2531 70.7251L51.8893 71.1751L48.8092 67.3029L48.5784 66.8163L48.4357 66.8634L48.5397 67.3918L48.3767 72.334L47.005 72.7866L47.3145 66.5299L49.2809 65.8811Z" fill="white"/>
<path d="M44.7025 67.3188L45.4249 73.1187L40.9176 73.6801L40.7886 72.6444L43.9868 72.246L43.8186 70.8955L40.7033 71.2835L40.5774 70.2727L43.6927 69.8847L43.5224 68.5176L40.3242 68.9159L40.1952 67.8802L44.7025 67.3188ZM45.0763 74.5756L43.8501 74.7284L43.2744 74.3625L42.8144 74.8574L41.5799 75.0111L42.618 73.9563L43.8028 73.8087L45.0763 74.5756Z" fill="white"/>
<path d="M37.7526 67.8753L37.4697 72.6512L39.6951 72.783L39.6324 73.8415L33.873 73.5003L33.9357 72.4418L36.1528 72.5731L36.4357 67.7973L37.7526 67.8753Z" fill="white"/>
<path d="M33.7218 67.5998L32.3356 73.2777L27.9231 72.2004L28.1706 71.1865L31.3015 71.9509L31.6243 70.6288L28.5745 69.8842L28.8161 68.8946L31.8659 69.6392L32.1927 68.3008L29.0617 67.5364L29.3093 66.5225L33.7218 67.5998Z" fill="white"/>
<path d="M24.4453 64.2505C25.9185 65.0543 26.4721 66.1839 25.8721 67.2833L25.8202 67.3786L24.6548 66.7427L24.6908 66.6767C25.0107 66.0904 24.695 65.5186 23.9474 65.1106C23.3904 64.8067 22.9146 64.7373 22.628 64.9138C22.5247 64.9811 22.4394 65.0677 22.3754 65.185C22.3234 65.2803 22.2901 65.3762 22.2901 65.4809C22.3 65.7241 22.4739 65.9807 22.9217 66.3106L23.8798 66.9951C24.5787 67.5096 24.8898 68.0028 24.8977 68.5112C24.907 68.7731 24.8377 69.0397 24.6897 69.3108C24.5377 69.5894 24.3358 69.8026 24.0912 69.9544C23.4534 70.3388 22.5039 70.2487 21.4191 69.6568C19.9459 68.8529 19.399 67.746 19.9989 66.6466L20.0509 66.5513L21.2163 67.1872L21.1803 67.2532C20.8603 67.8395 21.1548 68.3807 21.917 68.7966C22.4667 69.0966 22.9612 69.1666 23.2364 68.9934C23.3357 68.9335 23.421 68.8468 23.485 68.7296C23.537 68.6343 23.5663 68.5457 23.559 68.4371C23.5564 68.1978 23.3825 67.9413 22.9274 67.6073L21.962 66.9188C21.2777 66.4123 20.9633 65.9078 20.9587 65.4107C20.9534 65.1415 21.0268 64.8676 21.1747 64.5964C21.3267 64.3179 21.5327 64.0974 21.7772 63.9455C22.4077 63.5571 23.3606 63.6585 24.4453 64.2505Z" fill="white"/>
<path d="M21.218 62.6315L17.5051 67.1452L13.9973 64.2598L14.6603 63.4537L17.1493 65.5011L18.0139 64.4501L15.5893 62.4557L16.2365 61.669L18.661 63.6634L19.5362 62.5994L17.0472 60.552L17.7102 59.746L21.218 62.6315Z" fill="white"/>
<path d="M9.96424 47.3047C10.5061 48.9986 10.1981 50.4472 9.15056 51.2557C8.86267 51.4793 8.52262 51.6494 8.1409 51.7715C7.75918 51.8936 7.38351 51.9525 7.0193 51.9375C5.71545 51.89 4.61048 50.9022 4.06351 49.1924C3.51908 47.4906 3.84556 46.0449 4.87973 45.2495C5.17017 45.0338 5.50767 44.8557 5.88939 44.7336C6.27111 44.6115 6.64678 44.5527 7.01099 44.5676C8.30689 44.6177 9.41726 45.595 9.96424 47.3047ZM7.72367 50.4673C7.9861 50.3834 8.21195 50.2673 8.40918 50.1165C9.06226 49.6095 9.29772 48.7014 8.95427 47.6278C8.61591 46.5702 7.91298 45.9622 7.06846 45.9256C6.82035 45.9173 6.56905 45.9538 6.30662 46.0378C6.04419 46.1218 5.81834 46.2378 5.62111 46.3886C4.96803 46.8956 4.73002 47.7958 5.07347 48.8693C5.41692 49.9429 6.13576 50.5458 6.96183 50.5795C7.20994 50.5878 7.46124 50.5513 7.72367 50.4673Z" fill="white"/>
<path d="M8.59254 43.5185L6.96269 43.666L3.57625 39.8728L3.42657 39.8863L3.79448 43.9526L2.77167 44.0452L2.28488 38.665L3.96462 38.513L7.29816 42.2775L7.44784 42.2639L7.08218 38.2226L8.10499 38.13L8.59254 43.5185Z" fill="white"/>
<path d="M8.21293 35.7866L2.15203 37.3701L2.31336 35.9431L7.11857 34.7638L7.65706 34.7574L7.67394 34.6081L7.15046 34.4817L2.72887 32.2677L2.89114 30.8323L8.44554 33.729L8.21293 35.7866Z" fill="white"/>
<path d="M8.8254 30.9982L3.24881 29.2484L4.60861 24.9146L5.60442 25.2271L4.63957 28.3022L5.93812 28.7096L6.87797 25.7142L7.84989 26.0191L6.91004 29.0146L8.22452 29.427L9.18937 26.3519L10.1852 26.6644L8.8254 30.9982ZM2.06791 28.3266L2.43785 27.1475L3.00959 26.7756L2.7503 26.1517L3.12275 24.9647L3.65162 26.347L3.29418 27.4862L2.06791 28.3266Z" fill="white"/>
<path d="M11.1992 24.44L6.97107 22.2013L5.92791 24.1715L4.99078 23.6753L7.6905 18.5764L8.62763 19.0726L7.58837 21.0354L11.8165 23.2741L11.1992 24.44Z" fill="white"/>
<path d="M13.1141 20.906L8.53244 17.2773L11.3525 13.7166L12.1707 14.3646L10.1697 16.8911L11.2365 17.7361L13.1857 15.2751L13.9842 15.9075L12.0351 18.3685L13.115 19.2239L15.116 16.6974L15.9342 17.3454L13.1141 20.906Z" fill="white"/>
<path d="M20.0359 13.8679C18.6912 14.8721 17.4337 14.9045 16.6843 13.901L16.6194 13.814L17.6831 13.0197L17.7281 13.0799C18.1277 13.6151 18.7791 13.5664 19.4615 13.0568C19.9699 12.6772 20.2313 12.2736 20.1902 11.9395C20.1721 11.8176 20.1289 11.7039 20.049 11.5969C19.984 11.5099 19.9107 11.4396 19.8156 11.396C19.5904 11.3037 19.2847 11.3548 18.7982 11.6243L17.7766 12.21C17.0176 12.6309 16.4397 12.7082 15.9742 12.5035C15.7323 12.4028 15.5189 12.2287 15.334 11.9811C15.1442 11.7269 15.0346 11.4545 14.9984 11.1689C14.9148 10.4289 15.3925 9.60331 16.3826 8.86395C17.7273 7.85981 18.9614 7.82399 19.7108 8.82749L19.7757 8.91446L18.712 9.70878L18.667 9.64857C18.2674 9.11337 17.6528 9.1555 16.957 9.67505C16.4552 10.0497 16.1855 10.47 16.2283 10.7924C16.2414 10.9076 16.2846 11.0213 16.3645 11.1283C16.4294 11.2153 16.4978 11.2789 16.5995 11.3175C16.8181 11.4148 17.1238 11.3637 17.617 11.0892L18.6452 10.4985C19.3909 10.0876 19.9805 10.012 20.4343 10.215C20.6812 10.3224 20.8996 10.5032 21.0844 10.7508C21.2743 11.005 21.3889 11.2841 21.425 11.5697C21.5153 12.3047 21.026 13.1286 20.0359 13.8679Z" fill="white"/>
<path d="M22.8572 11.6083L20.2896 6.35781L24.3699 4.3624L24.8284 5.29998L21.9332 6.71584L22.5311 7.93845L25.3513 6.55927L25.7988 7.47434L22.9786 8.85352L23.5838 10.0911L26.4791 8.67527L26.9376 9.61285L22.8572 11.6083Z" fill="white"/>
</svg>
