<svg width="100" height="100" viewBox="0 0 100 100" fill="none" xmlns="http://www.w3.org/2000/svg">
<rect width="100" height="100" rx="50" fill="#1F3832"/>
<path d="M59.3526 21.0498C57.6704 20.4726 56.6927 19.3602 56.6701 18.0372C56.6627 17.6727 56.7294 17.2984 56.8595 16.9193C56.9895 16.5402 57.1668 16.2038 57.3963 15.9207C58.2133 14.9034 59.6655 14.6072 61.3635 15.1899C63.0535 15.7699 64.0179 16.8953 64.0381 18.1998C64.0375 18.5616 63.9788 18.9386 63.8487 19.3177C63.7186 19.6968 63.5414 20.0332 63.3118 20.3163C62.4976 21.3257 61.0505 21.6325 59.3526 21.0498ZM58.1546 17.3638C58.0652 17.6244 58.0234 17.8748 58.0265 18.1231C58.043 18.9497 58.6306 19.681 59.6968 20.0468C60.7471 20.4073 61.6546 20.2067 62.1884 19.5513C62.3433 19.3572 62.4641 19.1339 62.5535 18.8733C62.6429 18.6126 62.6848 18.3622 62.6817 18.1139C62.6652 17.2873 62.0854 16.5587 61.0193 16.1929C59.9531 15.827 59.0403 16.0434 58.5197 16.6857C58.3649 16.8798 58.2441 17.1031 58.1546 17.3638Z" fill="white"/>
<path d="M63.1946 22.2158L64.0496 20.8204L69.1145 20.3695L69.193 20.2414L65.7118 18.1081L66.2484 17.2324L70.8544 20.055L69.9732 21.4931L64.963 21.9187L64.8844 22.0469L68.3443 24.1671L67.8077 25.0427L63.1946 22.2158Z" fill="white"/>
<path d="M69.631 26.5256L71.9805 20.7185L73.0288 21.7002L71.105 26.2587L70.7885 26.6944L70.8982 26.7971L71.3122 26.4527L75.7286 24.2284L76.783 25.2158L71.1425 27.941L69.631 26.5256Z" fill="white"/>
<path d="M73.0936 29.8712L77.8334 26.4515L80.491 30.135L79.6446 30.7456L77.7589 28.132L76.6552 28.9283L78.492 31.4742L77.6659 32.0702L75.8291 29.5243L74.7118 30.3304L76.5976 32.944L75.7512 33.5547L73.0936 29.8712ZM79.2787 26.0573L80.0017 27.0595L79.9574 27.7401L80.6124 27.9059L81.3403 28.9148L79.9164 28.5109L79.2178 27.5427L79.2787 26.0573Z" fill="white"/>
<path d="M76.9274 35.7053L81.2482 33.6509L80.2909 31.6376L81.2485 31.1822L83.726 36.3927L82.7683 36.8481L81.8146 34.8423L77.4939 36.8967L76.9274 35.7053Z" fill="white"/>
<path d="M78.6338 39.3605L84.279 37.8468L85.4554 42.2339L84.4473 42.5042L83.6126 39.3913L82.2981 39.7438L83.1111 42.7761L82.1273 43.0399L81.3142 40.0076L79.9835 40.3644L80.8182 43.4773L79.8102 43.7476L78.6338 39.3605Z" fill="white"/>
<path d="M80.1466 49.0983C80.1457 47.42 80.8716 46.3927 82.124 46.392L82.2326 46.392L82.2333 47.7195L82.1581 47.7196C81.4902 47.7199 81.1398 48.2712 81.1402 49.1228C81.1406 49.7574 81.3078 50.2082 81.6001 50.375C81.7087 50.4334 81.8256 50.4667 81.9592 50.4666C82.0677 50.4666 82.1679 50.4498 82.2597 50.3997C82.4684 50.2743 82.6102 49.9987 82.685 49.4476L82.8264 48.2786C82.9428 47.4186 83.2264 46.9091 83.6688 46.6584C83.8942 46.5247 84.1613 46.4577 84.4703 46.4576C84.7876 46.4574 85.0715 46.5324 85.322 46.6742C85.9651 47.0496 86.3413 47.9261 86.342 49.1618C86.3429 50.8401 85.6337 51.8507 84.3813 51.8514L84.2727 51.8514L84.272 50.5239L84.3472 50.5238C85.0151 50.5235 85.3488 50.0056 85.3484 49.1373C85.348 48.5111 85.1725 48.0436 84.8885 47.8851C84.7883 47.8267 84.6714 47.7934 84.5378 47.7935C84.4292 47.7935 84.3374 47.8103 84.2456 47.8688C84.0369 47.9858 83.8951 48.2614 83.8202 48.8208L83.6789 49.9982C83.5625 50.8415 83.2705 51.3594 82.8365 51.6017C82.6027 51.7354 82.3273 51.8024 82.0183 51.8025C81.701 51.8027 81.4088 51.7277 81.1582 51.5859C80.5151 51.2189 80.1473 50.334 80.1466 49.0983Z" fill="white"/>
<path d="M80.2635 52.7129L86.0067 53.797L85.1642 58.2603L84.1386 58.0667L84.7365 54.8997L83.3991 54.6473L82.8168 57.7322L81.8158 57.5432L82.3981 54.4583L81.0444 54.2028L80.4466 57.3697L79.421 57.1761L80.2635 52.7129Z" fill="white"/>
<path d="M70.7305 71.4815C72.0472 70.286 73.493 69.9656 74.6631 70.5835C74.986 70.7527 75.2818 70.9916 75.5513 71.2883C75.8207 71.585 76.03 71.9025 76.1674 72.2401C76.6649 73.4463 76.2243 74.8614 74.8953 76.0681C73.5724 77.2693 72.1215 77.5717 70.9688 76.9605C70.6521 76.7857 70.3501 76.5524 70.0807 76.2557C69.8113 75.959 69.602 75.6415 69.4646 75.3039C68.9727 74.1039 69.4015 72.6883 70.7305 71.4815ZM74.5375 72.2088C74.3523 72.0048 74.153 71.8475 73.934 71.7305C73.2019 71.3465 72.2778 71.5088 71.4434 72.2665C70.6212 73.013 70.3595 73.9048 70.6764 74.6885C70.7718 74.9177 70.9092 75.1312 71.0945 75.3352C71.2797 75.5392 71.479 75.6965 71.6979 75.8135C72.4301 76.1975 73.3479 76.0408 74.1824 75.2831C75.0169 74.5253 75.2674 73.6212 74.9556 72.8555C74.8602 72.6263 74.7227 72.4128 74.5375 72.2088Z" fill="white"/>
<path d="M67.8339 74.3017L68.6472 75.7218L66.6104 80.381L66.6851 80.5114L70.2281 78.4823L70.7385 79.3735L66.0507 82.0582L65.2125 80.5946L67.2452 75.9955L67.1705 75.8651L63.6492 77.8818L63.1389 76.9906L67.8339 74.3017Z" fill="white"/>
<path d="M60.9606 77.8811L64.9328 82.7251L63.569 83.1751L60.4889 79.3029L60.2581 78.8163L60.1153 78.8634L60.2193 79.3918L60.0564 84.334L58.6847 84.7866L58.9942 78.5299L60.9606 77.8811Z" fill="white"/>
<path d="M56.3822 79.3188L57.1046 85.1187L52.5973 85.6801L52.4683 84.6444L55.6665 84.246L55.4983 82.8955L52.383 83.2835L52.2571 82.2727L55.3724 81.8847L55.2021 80.5176L52.0039 80.9159L51.8749 79.8802L56.3822 79.3188ZM56.756 86.5756L55.5298 86.7284L54.9541 86.3625L54.4941 86.8574L53.2595 87.0111L54.2977 85.9563L55.4825 85.8087L56.756 86.5756Z" fill="white"/>
<path d="M49.4323 79.8753L49.1494 84.6512L51.3748 84.783L51.3121 85.8415L45.5527 85.5003L45.6154 84.4418L47.8324 84.5731L48.1153 79.7973L49.4323 79.8753Z" fill="white"/>
<path d="M45.4015 79.5998L44.0153 85.2777L39.6027 84.2004L39.8503 83.1865L42.9812 83.9509L43.304 82.6288L40.2542 81.8842L40.4958 80.8946L43.5456 81.6392L43.8724 80.3008L40.7414 79.5364L40.989 78.5225L45.4015 79.5998Z" fill="white"/>
<path d="M36.125 76.2505C37.5982 77.0543 38.1517 78.1839 37.5518 79.2833L37.4998 79.3786L36.3345 78.7427L36.3705 78.6767C36.6904 78.0904 36.3747 77.5186 35.6271 77.1106C35.0701 76.8067 34.5943 76.7373 34.3077 76.9138C34.2044 76.9811 34.1191 77.0677 34.0551 77.185C34.0031 77.2803 33.9698 77.3762 33.9698 77.4809C33.9797 77.7241 34.1536 77.9807 34.6013 78.3106L35.5595 78.9951C36.2584 79.5096 36.5695 80.0028 36.5774 80.5112C36.5867 80.7731 36.5174 81.0397 36.3694 81.3108C36.2174 81.5894 36.0155 81.8026 35.7709 81.9544C35.1331 82.3388 34.1836 82.2487 33.0988 81.6568C31.6256 80.8529 31.0787 79.746 31.6786 78.6466L31.7306 78.5513L32.896 79.1872L32.86 79.2532C32.54 79.8395 32.8345 80.3807 33.5967 80.7966C34.1464 81.0966 34.6409 81.1666 34.9161 80.9934C35.0154 80.9335 35.1007 80.8468 35.1647 80.7296C35.2167 80.6343 35.246 80.5457 35.2387 80.4371C35.2361 80.1978 35.0622 79.9413 34.6071 79.6073L33.6417 78.9188C32.9574 78.4123 32.643 77.9078 32.6384 77.4107C32.6331 77.1415 32.7065 76.8676 32.8544 76.5964C33.0064 76.3179 33.2124 76.0974 33.4569 75.9455C34.0874 75.5571 35.0403 75.6585 36.125 76.2505Z" fill="white"/>
<path d="M32.8977 74.6315L29.1848 79.1452L25.677 76.2598L26.34 75.4537L28.829 77.5011L29.6936 76.4501L27.269 74.4557L27.9161 73.669L30.3407 75.6634L31.2159 74.5994L28.7269 72.552L29.3899 71.746L32.8977 74.6315Z" fill="white"/>
<path d="M21.6439 59.3047C22.1858 60.9986 21.8778 62.4472 20.8302 63.2557C20.5424 63.4793 20.2023 63.6494 19.8206 63.7715C19.4389 63.8936 19.0632 63.9525 18.699 63.9375C17.3951 63.89 16.2902 62.9022 15.7432 61.1924C15.1988 59.4906 15.5252 58.0449 16.5594 57.2495C16.8499 57.0338 17.1874 56.8557 17.5691 56.7336C17.9508 56.6115 18.3265 56.5527 18.6907 56.5676C19.9866 56.6177 21.0969 57.595 21.6439 59.3047ZM19.4034 62.4673C19.6658 62.3834 19.8916 62.2673 20.0889 62.1165C20.742 61.6095 20.9774 60.7014 20.634 59.6278C20.2956 58.5702 19.5927 57.9622 18.7481 57.9256C18.5 57.9173 18.2487 57.9538 17.9863 58.0378C17.7239 58.1218 17.498 58.2378 17.3008 58.3886C16.6477 58.8956 16.4097 59.7958 16.7532 60.8693C17.0966 61.9429 17.8154 62.5458 18.6415 62.5795C18.8896 62.5878 19.1409 62.5513 19.4034 62.4673Z" fill="white"/>
<path d="M20.2722 55.5185L18.6424 55.666L15.2559 51.8728L15.1063 51.8863L15.4742 55.9526L14.4514 56.0452L13.9646 50.665L15.6443 50.513L18.9779 54.2775L19.1275 54.2639L18.7619 50.2226L19.7847 50.13L20.2722 55.5185Z" fill="white"/>
<path d="M19.8926 47.7866L13.8317 49.3701L13.993 47.9431L18.7983 46.7638L19.3367 46.7574L19.3536 46.6081L18.8301 46.4817L14.4086 44.2677L14.5708 42.8323L20.1252 45.729L19.8926 47.7866Z" fill="white"/>
<path d="M20.5051 42.9982L14.9285 41.2484L16.2883 36.9146L17.2841 37.2271L16.3193 40.3022L17.6178 40.7096L18.5577 37.7142L19.5296 38.0191L18.5897 41.0146L19.9042 41.427L20.8691 38.3519L21.8649 38.6644L20.5051 42.9982ZM13.7476 40.3266L14.1175 39.1475L14.6893 38.7756L14.43 38.1517L14.8024 36.9647L15.3313 38.347L14.9739 39.4862L13.7476 40.3266Z" fill="white"/>
<path d="M22.8789 36.44L18.6508 34.2013L17.6076 36.1715L16.6705 35.6753L19.3702 30.5764L20.3073 31.0726L19.2681 33.0354L23.4962 35.2741L22.8789 36.44Z" fill="white"/>
<path d="M24.7938 32.906L20.2121 29.2773L23.0322 25.7166L23.8504 26.3646L21.8494 28.8911L22.9162 29.7361L24.8654 27.2751L25.6639 27.9075L23.7148 30.3685L24.7947 31.2239L26.7957 28.6974L27.6139 29.3454L24.7938 32.906Z" fill="white"/>
<path d="M31.7156 25.8679C30.3709 26.8721 29.1134 26.9045 28.364 25.901L28.2991 25.814L29.3628 25.0197L29.4077 25.0799C29.8074 25.6151 30.4588 25.5664 31.1411 25.0568C31.6496 24.6772 31.9109 24.2736 31.8699 23.9395C31.8518 23.8176 31.8086 23.7039 31.7287 23.5969C31.6637 23.5099 31.5904 23.4396 31.4953 23.396C31.2701 23.3037 30.9644 23.3548 30.4779 23.6243L29.4563 24.21C28.6973 24.6309 28.1194 24.7082 27.6539 24.5035C27.412 24.4028 27.1986 24.2287 27.0137 23.9811C26.8239 23.7269 26.7142 23.4545 26.6781 23.1689C26.5945 22.4289 27.0721 21.6033 28.0623 20.8639C29.407 19.8598 30.6411 19.824 31.3905 20.8275L31.4554 20.9145L30.3917 21.7088L30.3467 21.6486C29.9471 21.1134 29.3325 21.1555 28.6367 21.6751C28.1349 22.0497 27.8652 22.47 27.9079 22.7924C27.9211 22.9076 27.9642 23.0213 28.0442 23.1283C28.1091 23.2153 28.1774 23.2789 28.2792 23.3175C28.4978 23.4148 28.8035 23.3637 29.2967 23.0892L30.3249 22.4985C31.0705 22.0876 31.6602 22.012 32.114 22.215C32.3609 22.3224 32.5793 22.5032 32.7641 22.7508C32.9539 23.005 33.0686 23.2841 33.1047 23.5697C33.195 24.3047 32.7057 25.1286 31.7156 25.8679Z" fill="white"/>
<path d="M34.5369 23.6083L31.9693 18.3578L36.0496 16.3624L36.5081 17.3L33.6129 18.7158L34.2108 19.9384L37.031 18.5593L37.4785 19.4743L34.6583 20.8535L35.2635 22.0911L38.1587 20.6753L38.6172 21.6128L34.5369 23.6083Z" fill="white"/>
</svg>
