<svg fill="none" height="100" viewBox="0 0 100 100" width="100" xmlns="http://www.w3.org/2000/svg"><rect fill="#1f3832" height="100" rx="50" width="100"/><g fill="#fff"><path d="m59.3526 21.0498c-1.6822-.5772-2.6599-1.6896-2.6825-3.0126-.0074-.3645.0593-.7388.1894-1.1179.13-.3791.3073-.7155.5368-.9986.817-1.0173 2.2692-1.3135 3.9672-.7308 1.69.58 2.6544 1.7054 2.6746 3.0099-.0006.3618-.0593.7388-.1894 1.1179s-.3073.7155-.5369.9986c-.8142 1.0094-2.2613 1.3162-3.9592.7335zm-1.198-3.686c-.0894.2606-.1312.511-.1281.7593.0165.8266.6041 1.5579 1.6703 1.9237 1.0503.3605 1.9578.1599 2.4916-.4955.1549-.1941.2757-.4174.3651-.678.0894-.2607.1313-.5111.1282-.7594-.0165-.8266-.5963-1.5552-1.6624-1.921-1.0662-.3659-1.979-.1495-2.4996.4928-.1548.1941-.2756.4174-.3651.6781z"/><path d="m63.1946 22.2158.855-1.3954 5.0649-.4509.0785-.1281-3.4812-2.1333.5366-.8757 4.606 2.8226-.8812 1.4381-5.0102.4256-.0786.1282 3.4599 2.1202-.5366.8756z"/><path d="m69.631 26.5256 2.3495-5.8071 1.0483.9817-1.9238 4.5585-.3165.4357.1097.1027.414-.3444 4.4164-2.2243 1.0544.9874-5.6405 2.7252z"/><path d="m73.0936 29.8712 4.7398-3.4197 2.6576 3.6835-.8464.6106-1.8857-2.6136-1.1037.7963 1.8368 2.5459-.8261.596-1.8368-2.5459-1.1173.8061 1.8858 2.6136-.8464.6107zm6.1851-3.8139.723 1.0022-.0443.6806.655.1658.7279 1.0089-1.4239-.4039-.6986-.9682z"/><path d="m76.9274 35.7053 4.3208-2.0544-.9573-2.0133.9576-.4554 2.4775 5.2105-.9577.4554-.9537-2.0058-4.3207 2.0544z"/><path d="m78.6338 39.3605 5.6452-1.5137 1.1764 4.3871-1.0081.2703-.8347-3.1129-1.3145.3525.813 3.0323-.9838.2638-.8131-3.0323-1.3307.3568.8347 3.1129-1.008.2703z"/><path d="m80.1466 49.0983c-.0009-1.6783.725-2.7056 1.9774-2.7063h.1086l.0007 1.3275-.0752.0001c-.6679.0003-1.0183.5516-1.0179 1.4032.0004.6346.1676 1.0854.4599 1.2522.1086.0584.2255.0917.3591.0916.1085 0 .2087-.0168.3005-.0669.2087-.1254.3505-.401.4253-.9521l.1414-1.169c.1164-.86.4-1.3695.8424-1.6202.2254-.1337.4925-.2007.8015-.2008.3173-.0002.6012.0748.8517.2166.6431.3754 1.0193 1.2519 1.02 2.4876.0009 1.6783-.7083 2.6889-1.9607 2.6896h-.1086l-.0007-1.3275.0752-.0001c.6679-.0003 1.0016-.5182 1.0012-1.3865-.0004-.6262-.1759-1.0937-.4599-1.2522-.1002-.0584-.2171-.0917-.3507-.0916-.1086 0-.2004.0168-.2922.0753-.2087.117-.3505.3926-.4254.952l-.1413 1.1774c-.1164.8433-.4084 1.3612-.8424 1.6035-.2338.1337-.5092.2007-.8182.2008-.3173.0002-.6095-.0748-.8601-.2166-.6431-.367-1.0109-1.2519-1.0116-2.4876z"/><path d="m80.2635 52.7129 5.7432 1.0841-.8425 4.4633-1.0256-.1936.5979-3.167-1.3374-.2524-.5823 3.0849-1.001-.189.5823-3.0849-1.3537-.2555-.5978 3.1669-1.0256-.1936z"/><path d="m70.7305 71.4815c1.3167-1.1955 2.7625-1.5159 3.9326-.898.3229.1692.6187.4081.8882.7048.2694.2967.4787.6142.6161.9518.4975 1.2062.0569 2.6213-1.2721 3.828-1.3229 1.2012-2.7738 1.5036-3.9265.8924-.3167-.1748-.6187-.4081-.8881-.7048s-.4787-.6142-.6161-.9518c-.4919-1.2-.0631-2.6156 1.2659-3.8224zm3.807.7273c-.1852-.204-.3845-.3613-.6035-.4783-.7321-.384-1.6562-.2217-2.4906.536-.8222.7465-1.0839 1.6383-.767 2.422.0954.2292.2328.4427.4181.6467.1852.204.3845.3613.6034.4783.7322.384 1.65.2273 2.4845-.5304.8345-.7578 1.085-1.6619.7732-2.4276-.0954-.2292-.2329-.4427-.4181-.6467z"/><path d="m67.8339 74.3017.8133 1.4201-2.0368 4.6592.0747.1304 3.543-2.0291.5104.8912-4.6878 2.6847-.8382-1.4636 2.0327-4.5991-.0747-.1304-3.5213 2.0167-.5103-.8912z"/><path d="m60.9606 77.8811 3.9722 4.844-1.3638.45-3.0801-3.8722-.2308-.4866-.1428.0471.104.5284-.1629 4.9422-1.3717.4526.3095-6.2567z"/><path d="m56.3822 79.3188.7224 5.7999-4.5073.5614-.129-1.0357 3.1982-.3984-.1682-1.3505-3.1153.388-.1259-1.0108 3.1153-.388-.1703-1.3671-3.1982.3983-.129-1.0357zm.3738 7.2568-1.2262.1528-.5757-.3659-.46.4949-1.2346.1537 1.0382-1.0548 1.1848-.1476z"/><path d="m49.4323 79.8753-.2829 4.7759 2.2254.1318-.0627 1.0585-5.7594-.3412.0627-1.0585 2.217.1313.2829-4.7758z"/><path d="m45.4015 79.5998-1.3862 5.6779-4.4126-1.0773.2476-1.0139 3.1309.7644.3228-1.3221-3.0498-.7446.2416-.9896 3.0498.7446.3268-1.3384-3.131-.7644.2476-1.0139z"/><path d="m36.125 76.2505c1.4732.8038 2.0267 1.9334 1.4268 3.0328l-.052.0953-1.1653-.6359.036-.066c.3199-.5863.0042-1.1581-.7434-1.5661-.557-.3039-1.0328-.3733-1.3194-.1968-.1033.0673-.1886.1539-.2526.2712-.052.0953-.0853.1912-.0853.2959.0099.2432.1838.4998.6315.8297l.9582.6845c.6989.5145 1.01 1.0077 1.0179 1.5161.0093.2619-.06.5285-.208.7996-.152.2786-.3539.4918-.5985.6436-.6378.3844-1.5873.2943-2.6721-.2976-1.4732-.8039-2.0201-1.9108-1.4202-3.0102l.052-.0953 1.1654.6359-.036.066c-.32.5863-.0255 1.1275.7367 1.5434.5497.3 1.0442.37 1.3194.1968.0993-.0599.1846-.1466.2486-.2638.052-.0953.0813-.1839.074-.2925-.0026-.2393-.1765-.4958-.6316-.8298l-.9654-.6885c-.6843-.5065-.9987-1.011-1.0033-1.5081-.0053-.2692.0681-.5431.216-.8143.152-.2785.358-.499.6025-.6509.6305-.3884 1.5834-.287 2.6681.305z"/><path d="m32.8977 74.6315-3.7129 4.5137-3.5078-2.8854.663-.8061 2.489 2.0474.8646-1.051-2.4246-1.9944.6471-.7867 2.4246 1.9944.8752-1.064-2.489-2.0474.663-.806z"/><path d="m21.6439 59.3047c.5419 1.6939.2339 3.1425-.8137 3.951-.2878.2236-.6279.3937-1.0096.5158s-.7574.181-1.1216.166c-1.3039-.0475-2.4088-1.0353-2.9558-2.7451-.5444-1.7018-.218-3.1475.8162-3.9429.2905-.2157.628-.3938 1.0097-.5159s.7574-.1809 1.1216-.166c1.2959.0501 2.4062 1.0274 2.9532 2.7371zm-2.2405 3.1626c.2624-.0839.4882-.2.6855-.3508.6531-.507.8885-1.4151.5451-2.4887-.3384-1.0576-1.0413-1.6656-1.8859-1.7022-.2481-.0083-.4994.0282-.7618.1122s-.4883.2-.6855.3508c-.6531.507-.8911 1.4072-.5476 2.4807.3434 1.0736 1.0622 1.6765 1.8883 1.7102.2481.0083.4994-.0282.7619-.1122z"/><path d="m20.2722 55.5185-1.6298.1475-3.3865-3.7932-.1496.0135.3679 4.0663-1.0228.0926-.4868-5.3802 1.6797-.152 3.3336 3.7645.1496-.0136-.3656-4.0413 1.0228-.0926z"/><path d="m19.8926 47.7866-6.0609 1.5835.1613-1.427 4.8053-1.1793.5384-.0064.0169-.1493-.5235-.1264-4.4215-2.214.1622-1.4354 5.5544 2.8967z"/><path d="m20.5051 42.9982-5.5766-1.7498 1.3598-4.3338.9958.3125-.9648 3.0751 1.2985.4074.9399-2.9954.9719.3049-.9399 2.9955 1.3145.4124.9649-3.0751.9958.3125zm-6.7575-2.6716.3699-1.1791.5718-.3719-.2593-.6239.3724-1.187.5289 1.3823-.3574 1.1392z"/><path d="m22.8789 36.44-4.2281-2.2387-1.0432 1.9702-.9371-.4962 2.6997-5.0989.9371.4962-1.0392 1.9628 4.2281 2.2387z"/><path d="m24.7938 32.906-4.5817-3.6287 2.8201-3.5607.8182.648-2.001 2.5265 1.0668.845 1.9492-2.461.7985.6324-1.9491 2.461 1.0799.8554 2.001-2.5265.8182.648z"/><path d="m31.7156 25.8679c-1.3447 1.0042-2.6022 1.0366-3.3516.0331l-.0649-.087 1.0637-.7943.0449.0602c.3997.5352 1.0511.4865 1.7334-.0231.5085-.3796.7698-.7832.7288-1.1173-.0181-.1219-.0613-.2356-.1412-.3426-.065-.087-.1383-.1573-.2334-.2009-.2252-.0923-.5309-.0412-1.0174.2283l-1.0216.5857c-.759.4209-1.3369.4982-1.8024.2935-.2419-.1007-.4553-.2748-.6402-.5224-.1898-.2542-.2995-.5266-.3356-.8122-.0836-.74.394-1.5656 1.3842-2.305 1.3447-1.0041 2.5788-1.0399 3.3282-.0364l.0649.087-1.0637.7943-.045-.0602c-.3996-.5352-1.0142-.4931-1.71.0265-.5018.3746-.7715.7949-.7288 1.1173.0132.1152.0563.2289.1363.3359.0649.087.1332.1506.235.1892.2186.0973.5243.0462 1.0175-.2283l1.0282-.5907c.7456-.4109 1.3353-.4865 1.7891-.2835.2469.1074.4653.2882.6501.5358.1898.2542.3045.5333.3406.8189.0903.735-.399 1.5589-1.3891 2.2982z"/><path d="m34.5369 23.6083-2.5676-5.2505 4.0803-1.9954.4585.9376-2.8952 1.4158.5979 1.2226 2.8202-1.3791.4475.915-2.8202 1.3792.6052 1.2376 2.8952-1.4158.4585.9375z"/></g></svg>