<svg width="83" height="79" viewBox="0 0 83 79" fill="none" xmlns="http://www.w3.org/2000/svg">
<path d="M77.4402 9.97919C80.6225 10.0277 83.0449 12.6048 83.0009 15.8933C82.9584 19.0984 80.533 21.5041 77.3916 21.457C74.2382 21.41 71.7748 18.795 71.8158 15.5384C71.8567 12.3515 74.3034 9.93217 77.4402 9.97919ZM80.7029 15.6961C80.6544 13.7242 79.1466 12.2468 77.2384 12.303C75.3864 12.3561 74.0926 13.794 74.1381 15.7447C74.1836 17.6786 75.752 19.2349 77.5949 19.1757C79.3969 19.1181 80.7499 17.6043 80.7029 15.6961Z" fill="#C8E8C3"/>
<path d="M30.5039 54.7425C27.6477 54.7349 25.4058 52.3671 25.4589 49.4139C25.512 46.5046 27.8191 44.2005 30.6814 44.1975C33.5694 44.1945 35.7354 46.497 35.6945 49.5231C35.6535 52.4597 33.3783 54.7486 30.5039 54.741V54.7425ZM33.3995 49.4852C33.439 47.8379 32.2027 46.5092 30.6222 46.5016C29.1054 46.494 27.8039 47.844 27.769 49.4624C27.7326 51.1112 28.9689 52.4293 30.5494 52.4278C32.1087 52.4263 33.3601 51.134 33.3995 49.4852Z" fill="#C8E8C3"/>
<path d="M52.5713 29.4642C52.6016 32.3492 50.2733 34.7398 47.449 34.7261C44.8719 34.7125 42.8954 32.7375 42.8272 30.1074C42.7529 27.2588 45.066 24.7712 47.8494 24.7029C50.4735 24.6377 52.5425 26.7248 52.5713 29.4642ZM50.2733 29.3823C50.2217 27.9914 49.0947 26.9448 47.7584 27.0419C46.3705 27.1435 45.1176 28.5283 45.1146 29.9663C45.1115 31.3527 46.1809 32.4296 47.5339 32.4038C49.0492 32.375 50.3325 30.9583 50.2733 29.3823Z" fill="#C8E8C3"/>
<path d="M48.915 12.5652C48.9423 15.3592 46.7899 17.6891 44.1961 17.6709C41.7146 17.6542 39.6578 15.4699 39.6987 12.8929C39.7397 10.2642 41.8648 7.98592 44.3615 7.89491C46.8415 7.80541 48.8892 9.90622 48.915 12.5652ZM46.5927 12.5925C46.5594 11.2395 45.5719 10.202 44.3751 10.2627C43.1829 10.3233 42.0665 11.5732 42.0392 12.8792C42.0119 14.1715 43.007 15.3016 44.1825 15.3152C45.4915 15.3319 46.6276 14.0472 46.5912 12.5925H46.5927Z" fill="#C8E8C3"/>
<path d="M13.4193 78.0184C11.9783 77.9942 10.8482 76.9369 10.5358 75.3245C9.95028 72.297 13.2175 68.5716 16.2846 68.8932C16.9307 68.9614 17.7619 69.4453 18.0881 69.9899C19.7035 72.6868 16.5212 78.0715 13.4193 78.0169V78.0184ZM13.3359 75.6203C15.3805 75.0015 16.2072 73.7577 16.1632 71.3702C13.3207 71.8889 12.2604 73.4831 13.3359 75.6203Z" fill="#C8E8C3"/>
<path d="M58.3242 4.50351C58.3439 6.74842 56.5328 8.58226 54.3243 8.55648C52.0157 8.52918 50.059 6.61039 50.0878 4.40189C50.1181 2.12968 52.0931 -0.0120833 54.1468 5.13184e-05C56.4312 0.0137028 58.3045 2.0326 58.3257 4.50351H58.3242ZM56.1081 4.36852C56.0808 3.22786 55.3391 2.34658 54.3986 2.33142C53.3915 2.31625 52.3964 3.34162 52.3873 4.40492C52.3797 5.33322 53.3187 6.2418 54.3213 6.27972C55.3315 6.31613 56.1354 5.4576 56.1081 4.36852Z" fill="#C8E8C3"/>
<path d="M7.73732 61.4846C7.59019 63.5808 6.42525 65.5118 4.20007 66.7116C2.47998 67.6384 0.849395 66.9391 0.259348 65.078C-0.259407 63.4428 -0.0364276 61.7925 1.26046 60.7004C2.43904 59.7084 3.88912 58.9363 5.34224 58.4069C6.78475 57.8821 7.75097 59.0698 7.73732 61.4861V61.4846ZM2.71359 64.8413C4.55198 64.0708 5.44085 62.9241 5.44691 61.0447C2.72876 61.7682 2.18725 62.4827 2.71359 64.8413Z" fill="#C8E8C3"/>
<path d="M52.0568 59.93C52.1068 62.2189 50.226 64.0982 47.8901 64.0967C45.762 64.0952 43.9145 62.3463 43.8538 60.2773C43.7901 58.1037 45.8151 56.1106 48.0857 56.1121C50.2624 56.1121 52.0098 57.7943 52.0568 59.93ZM49.7376 59.9649C49.7057 59.1427 48.9776 58.4617 48.11 58.445C47.1301 58.4253 46.1533 59.346 46.1973 60.2485C46.2367 61.0964 47.1772 61.8503 48.0842 61.7608C49.0216 61.6698 49.7709 60.8537 49.7376 59.9649Z" fill="#C8E8C3"/>
<path d="M72.6131 32.1535C72.6495 30.039 74.7654 28.2431 77.1196 28.3265C79.1127 28.3978 80.2655 29.7705 80.1942 31.9927C80.1244 34.2058 78.4225 35.9653 76.3642 35.9547C74.45 35.9456 72.5812 34.051 72.6131 32.1535ZM77.652 30.6442C76.5219 30.576 75.4496 30.6928 75.0703 31.9047C74.946 32.3037 75.3312 33.1091 75.7195 33.3518C76.1033 33.5914 76.933 33.5596 77.3046 33.2881C78.2041 32.6313 78.2602 31.6848 77.652 30.6442Z" fill="#C8E8C3"/>
<path d="M58.3131 43.3117C60.0802 43.3542 61.3498 44.8437 61.3483 46.8748C61.3483 48.8542 59.4947 50.6016 57.4834 50.5197C55.6981 50.4469 54.2389 48.8952 54.2495 47.0795C54.2617 45.0849 56.2274 43.2602 58.3116 43.3117H58.3131ZM59.6464 47.0219C58.9866 46.3621 58.4617 45.6173 58.2797 45.6932C57.6563 45.9525 57.0738 46.441 56.6673 46.9855C56.5733 47.1129 57.3165 48.2081 57.5456 48.1641C58.1705 48.0458 58.7257 47.5604 59.6479 47.0219H59.6464Z" fill="#C8E8C3"/>
<path d="M22.8789 42.8458C20.7887 42.8944 19.1369 41.3867 19.149 39.4406C19.1596 37.5991 20.7235 36.1051 22.6923 36.0535C24.7734 35.9989 26.4358 37.5218 26.4192 39.4664C26.404 41.3214 24.8553 42.8003 22.8789 42.8458ZM22.888 37.9768C22.2888 38.576 21.7655 38.8975 21.5562 39.3602C21.309 39.9093 22.128 40.6844 22.8243 40.4841C23.3036 40.3476 23.9376 39.8547 24.0028 39.4421C24.059 39.0856 23.4083 38.6184 22.8895 37.9753L22.888 37.9768Z" fill="#C8E8C3"/>
<path d="M82.9566 47.4463C82.987 49.3484 81.5202 50.9229 79.6363 51.0124C77.8434 51.0973 76.363 49.3727 76.3585 47.1945C76.3539 45.1771 77.6311 43.9257 79.8001 43.8241C81.593 43.7392 82.9233 45.2666 82.9582 47.4463H82.9566ZM79.3921 48.6992C80.8134 48.0985 81.1789 47.5646 80.5874 46.7106C80.3811 46.4133 79.6697 46.2131 79.3072 46.3299C78.4168 46.6181 78.4668 47.243 79.3936 48.6977L79.3921 48.6992Z" fill="#C8E8C3"/>
<path d="M28.7026 9.57563C28.6874 11.3534 26.9764 12.8201 25.0061 12.7412C23.1267 12.6669 21.5371 11.185 21.5568 9.52254C21.5781 7.75088 23.2526 6.3463 25.2897 6.39029C27.2085 6.43124 28.7163 7.83886 28.7011 9.57411L28.7026 9.57563ZM26.4031 9.33749C25.6477 8.66705 24.9272 8.38492 24.1931 9.14789C24.052 9.29502 24.1445 9.95029 24.3281 10.0747C25.1214 10.6071 25.8752 10.6056 26.4016 9.33749H26.4031Z" fill="#C8E8C3"/>
<path d="M62.5887 58.6635C62.5478 60.5474 60.9551 62.1127 59.1076 62.0839C57.248 62.0551 55.8388 60.5792 55.9132 58.7347C55.9936 56.7492 57.5953 55.1672 59.5505 55.1414C61.2281 55.1201 62.6297 56.7447 62.5872 58.6635H62.5887ZM60.8899 58.5558C60.2209 58.0476 59.863 57.5531 59.4883 57.5395C58.7466 57.5122 58.199 58.0537 58.2916 58.8091C58.3371 59.1731 58.9802 59.8041 59.1683 59.7434C59.7022 59.572 60.1421 59.1049 60.8899 58.5558Z" fill="#C8E8C3"/>
<path d="M37.3417 29.7057C37.3402 31.532 35.8886 33.1595 34.2019 33.2293C32.5576 33.296 31.3032 31.8596 31.2926 29.8953C31.282 28.066 32.7184 26.5992 34.5598 26.5628C36.2162 26.5295 37.3447 27.8051 37.3432 29.7057H37.3417ZM34.0016 30.992C34.9921 30.6795 35.3713 30.1456 34.9785 29.281C34.9026 29.1126 34.4172 28.9609 34.2246 29.0444C33.2796 29.4539 33.3767 30.1152 34.0016 30.9935V30.992Z" fill="#C8E8C3"/>
<path d="M70.7646 25.5571C70.7176 27.2863 69.2372 28.6924 67.5156 28.6438C65.9305 28.5983 64.6579 27.1604 64.67 25.4281C64.6837 23.6246 66.1823 22.352 68.2027 22.4294C69.7484 22.4885 70.8132 23.7884 70.7646 25.5571ZM68.8398 25.5252C68.4545 25.1945 68.1724 24.7835 67.9797 24.8214C67.6172 24.8942 67.3078 25.2264 66.9771 25.4509C67.2213 25.7497 67.458 26.2821 67.7082 26.2882C68.0268 26.2958 68.3544 25.8771 68.8398 25.5252Z" fill="#C8E8C3"/>
</svg>
