<svg width="22" height="18" viewBox="0 0 22 18" fill="none" xmlns="http://www.w3.org/2000/svg">
<path d="M21.0408 0C20.6 1.86122 20.1347 3.86939 19.6449 6.02449C19.1551 8.17959 18.7143 10.2857 18.3224 12.3429C17.9306 14.4 17.6122 16.2857 17.3673 18H10.3878L9.87347 17.1918C10.3143 15.4775 10.8776 13.6408 11.5633 11.6816C12.249 9.67347 13.0082 7.66531 13.8408 5.65714C14.6735 3.64898 15.4816 1.76327 16.2653 0H21.0408ZM11.0204 0C10.5796 1.86122 10.1143 3.86939 9.62449 6.02449C9.13469 8.17959 8.69388 10.2857 8.30204 12.3429C7.9102 14.4 7.59184 16.2857 7.34694 18H0.440816L0 17.1918C0.440816 15.4775 1.00408 13.6408 1.6898 11.6816C2.37551 9.67347 3.1102 7.66531 3.89388 5.65714C4.72653 3.64898 5.53469 1.76327 6.31837 0H11.0204Z" fill="#016241"/>
</svg>
