<svg fill="none" height="506" viewBox="0 0 1450 506" width="1450" xmlns="http://www.w3.org/2000/svg" xmlns:xlink="http://www.w3.org/1999/xlink"><mask id="a" height="506" maskUnits="userSpaceOnUse" width="1450" x="0" y="0"><path d="m5 500.156c.37214-3.437 4.90419-6.458 7.1042-8.715 8.459-8.68 15.614-17.895 23.1661-27.415 14.3026-18.029 32.1866-32.499 46.7953-50.153 11.5767-13.99 23.8364-27.349 37.3744-39.378 33.759-29.996 67.566-60.439 103.63-87.472 20.085-15.056 36.328-28.786 62.471-35.654 26.142-6.869 42.444.06 59.691 4.912 31.838 8.957 63.766 22.254 96.834 25.592 25.089 2.532 50.001 4.357 75.212 4.357 29.225 0 56.329.777 84.324-9.428 31.273-11.399 61.576-23.581 90.271-40.963 25.897-15.687 49.387-33.555 74.208-50.867 30.314-21.142 57.57-46.616 89.189-65.841 20.285-12.334 41.266-24.0456 63.244-32.5644 33.986-13.1737 74.929-7.1308 110.576-7.1308 28.81 0 57.53 1.4261 86.33 1.4261 20.26 0 40.29-2.8523 60.47-2.8523 11.01 0 22.88-3.9015 33.51-6.4178 17.81-4.2169 35.54-8.4044 52.9-14.3409 15.12-5.171 27.22-14.9419 41-22.8979 6.93-3.9995 12.38-8.1595 20.08-11.2509 10.67-4.2852 22.11-8.7643 33.28-11.4094 12.95-3.06633 26.66-9.51901 40-5.30853 14.86 4.69273 32.68 6.02163 48.34 6.02163" fill="none" stroke="#dff9ba" stroke-linecap="round" stroke-width="10"/></mask><path d="m5 500.156c.37214-3.437 4.90419-6.458 7.1042-8.715 8.459-8.68 15.614-17.895 23.1661-27.415 14.3026-18.029 32.1866-32.499 46.7953-50.153 11.5767-13.99 23.8364-27.349 37.3744-39.378 33.759-29.996 67.566-60.439 103.63-87.472 20.085-15.056 36.328-28.786 62.471-35.654 26.142-6.869 42.444.06 59.691 4.912 31.838 8.957 63.766 22.254 96.834 25.592 25.089 2.532 50.001 4.357 75.212 4.357 29.225 0 56.329.777 84.324-9.428 31.273-11.399 61.576-23.581 90.271-40.963 25.897-15.687 49.387-33.555 74.208-50.867 30.314-21.142 57.57-46.616 89.189-65.841 20.285-12.334 41.266-24.0456 63.244-32.5644 33.986-13.1737 74.929-7.1308 110.576-7.1308 28.81 0 57.53 1.4261 86.33 1.4261 20.26 0 40.29-2.8523 60.47-2.8523 11.01 0 22.88-3.9015 33.51-6.4178 17.81-4.2169 35.54-8.4044 52.9-14.3409 15.12-5.171 27.22-14.9419 41-22.8979 6.93-3.9995 12.38-8.1595 20.08-11.2509 10.67-4.2852 22.11-8.7643 33.28-11.4094 12.95-3.06633 26.66-9.51901 40-5.30853 14.86 4.69273 32.68 6.02163 48.34 6.02163" stroke="#c8e8c3" stroke-linecap="round" stroke-width="10"/><g mask="url(#a)"><path d="m5 3h799.181v467h-799.181z" fill="#c8e8c3"/></g></svg>