<svg width="1440" height="498" viewBox="0 0 1440 498" fill="none" xmlns="http://www.w3.org/2000/svg">
<mask id="mask0_7080_6986" style="mask-type:alpha" maskUnits="userSpaceOnUse" x="-5" y="-3" width="1488" height="506">
<path d="M0 497.156C0.381836 493.719 5.03194 490.698 7.28931 488.441C15.9687 479.761 23.3101 470.546 31.0588 461.026C45.734 442.997 64.0839 428.527 79.0732 410.873C90.9515 396.883 103.53 383.524 117.421 371.495C152.059 341.499 186.747 311.056 223.75 284.023C244.359 268.967 261.026 255.237 287.849 248.369C314.672 241.5 331.399 248.429 349.095 253.281C381.763 262.238 414.522 275.535 448.451 278.873C474.195 281.405 499.755 283.23 525.623 283.23C555.61 283.23 583.42 284.007 612.144 273.802C644.231 262.403 675.323 250.221 704.766 232.839C731.338 217.152 755.44 199.284 780.907 181.972C812.011 160.83 839.977 135.356 872.42 116.131C893.234 103.797 914.761 92.0854 937.311 83.5666C972.182 70.3929 1014.19 76.4358 1050.77 76.4358C1080.33 76.4358 1109.79 77.8619 1139.35 77.8619C1160.13 77.8619 1180.68 75.0096 1201.39 75.0096C1212.69 75.0096 1224.87 71.1081 1235.78 68.5918C1254.05 64.3749 1272.24 60.1874 1290.05 54.2509C1305.56 49.0799 1317.98 39.309 1332.12 31.353C1339.23 27.3535 1344.82 23.1935 1352.72 20.1021C1363.67 15.8169 1375.41 11.3378 1386.87 8.69269C1400.16 5.62637 1414.23 -0.826314 1427.91 3.38417C1443.16 8.07688 1461.44 9.40578 1477.51 9.40578" stroke="#DFF9BA" stroke-width="10" stroke-linecap="round"/>
</mask>
<g mask="url(#mask0_7080_6986)">
<rect width="820" height="467" fill="#C8E8C3"/>
</g>
</svg>
