<svg width="1450" height="506" viewBox="0 0 1450 506" fill="none" xmlns="http://www.w3.org/2000/svg">
<path d="M5 500.156C5.37214 496.719 9.90419 493.698 12.1042 491.441C20.5632 482.761 27.7182 473.546 35.2703 464.026C49.5729 445.997 67.4569 431.527 82.0656 413.873C93.6423 399.883 105.902 386.524 119.44 374.495C153.199 344.499 187.006 314.056 223.07 287.023C243.155 271.967 259.398 258.237 285.541 251.369C311.683 244.5 327.985 251.429 345.232 256.281C377.07 265.238 408.998 278.535 442.066 281.873C467.155 284.405 492.067 286.23 517.278 286.23C546.503 286.23 573.607 287.007 601.602 276.802C632.875 265.403 663.178 253.221 691.873 235.839C717.77 220.152 741.26 202.284 766.081 184.972C796.395 163.83 823.651 138.356 855.27 119.131C875.555 106.797 896.536 95.0854 918.514 86.5666C952.5 73.3929 993.443 79.4358 1029.09 79.4358C1057.9 79.4358 1086.62 80.8619 1115.42 80.8619C1135.68 80.8619 1155.71 78.0096 1175.89 78.0096C1186.9 78.0096 1198.77 74.1081 1209.4 71.5918C1227.21 67.3749 1244.94 63.1874 1262.3 57.2509C1277.42 52.0799 1289.52 42.309 1303.3 34.353C1310.23 30.3535 1315.68 26.1935 1323.38 23.1021C1334.05 18.8169 1345.49 14.3378 1356.66 11.6927C1369.61 8.62637 1383.32 2.17369 1396.66 6.38417C1411.52 11.0769 1429.34 12.4058 1445 12.4058" stroke="#C8E8C3" stroke-width="10" stroke-linecap="round"/>
<mask id="mask0_7086_8200" style="mask-type:alpha" maskUnits="userSpaceOnUse" x="0" y="0" width="1450" height="506">
<path d="M5 500.156C5.37214 496.719 9.90419 493.698 12.1042 491.441C20.5632 482.761 27.7182 473.546 35.2703 464.026C49.5729 445.997 67.4569 431.527 82.0656 413.873C93.6423 399.883 105.902 386.524 119.44 374.495C153.199 344.499 187.006 314.056 223.07 287.023C243.155 271.967 259.398 258.237 285.541 251.369C311.683 244.5 327.985 251.429 345.232 256.281C377.07 265.238 408.998 278.535 442.066 281.873C467.155 284.405 492.067 286.23 517.278 286.23C546.503 286.23 573.607 287.007 601.602 276.802C632.875 265.403 663.178 253.221 691.873 235.839C717.77 220.152 741.26 202.284 766.081 184.972C796.395 163.83 823.651 138.356 855.27 119.131C875.555 106.797 896.536 95.0854 918.514 86.5666C952.5 73.3929 993.443 79.4358 1029.09 79.4358C1057.9 79.4358 1086.62 80.8619 1115.42 80.8619C1135.68 80.8619 1155.71 78.0096 1175.89 78.0096C1186.9 78.0096 1198.77 74.1081 1209.4 71.5918C1227.21 67.3749 1244.94 63.1874 1262.3 57.2509C1277.42 52.0799 1289.52 42.309 1303.3 34.353C1310.23 30.3535 1315.68 26.1935 1323.38 23.1021C1334.05 18.8169 1345.49 14.3378 1356.66 11.6927C1369.61 8.62637 1383.32 2.17369 1396.66 6.38417C1411.52 11.0769 1429.34 12.4058 1445 12.4058" stroke="#DFF9BA" stroke-width="10" stroke-linecap="round"/>
</mask>
<g mask="url(#mask0_7086_8200)">
<rect x="5" y="3" width="799.181" height="467" fill="#C8E8C3"/>
</g>
</svg>
