<svg width="516" height="120" viewBox="0 0 516 120" fill="none" xmlns="http://www.w3.org/2000/svg">
<path d="M17.6568 29C17.8228 29.2977 18.1839 29.6739 18.2392 30.0904C18.4565 31.733 18.5581 33.3897 18.7411 35.0363C18.8357 35.8832 18.9423 36.7392 19.1666 37.557C19.5298 38.8747 20.26 39.3032 21.6391 39.2157C22.2849 39.1745 22.9497 39.1222 23.5754 39.2368C23.8782 39.2921 24.1135 39.7217 24.3791 39.9822C24.1025 40.2196 23.8581 40.5857 23.5422 40.6652C22.9658 40.811 22.3462 40.7808 21.7457 40.8332C19.7038 41.0132 18.8266 41.6811 18.5178 43.7532C18.1628 46.1331 18.028 48.5452 17.8097 50.9452C17.7594 51.4945 17.7986 52.0537 17.7222 52.5979C17.6568 53.0606 17.4224 53.5666 16.8763 53.4338C16.5866 53.3634 16.2697 52.9228 16.1852 52.5929C16.0514 52.0688 16.1128 51.4965 16.0736 50.9452C15.9046 48.5412 15.7949 46.1291 15.5334 43.7351C15.3463 42.0261 15.2518 42.0493 13.59 41.8602C12.7431 41.7636 11.8972 41.6389 11.0623 41.4709C10.5684 41.3713 10.0634 41.1802 10.0051 40.5606C9.94575 39.9319 10.4145 39.7005 10.8883 39.4933C10.9798 39.4531 11.0754 39.4179 11.1729 39.3937C13.7993 38.7238 15.0395 36.8982 15.459 34.3382C15.6943 32.9028 16.0132 31.4795 16.321 30.0572C16.4447 29.4848 16.7324 29.0231 17.6588 29H17.6568ZM17.1307 34.7023C16.6137 35.9727 16.3482 37.0068 15.802 37.8608C15.2357 38.746 14.3968 39.4561 13.6001 40.3272C15.2125 40.4469 16.7163 40.7004 16.9497 42.7544C17.6115 41.7254 18.1678 40.8593 18.7713 39.9188C17.6065 38.5719 17.4134 36.8257 17.1307 34.7023Z" fill="#C8E8C3"/>
<path d="M500.085 30.0424C499.865 30.7837 499.435 31.177 498.805 31.2977C498.417 31.3712 498.001 31.3621 497.604 31.3269C496.075 31.1891 495.069 31.9525 494.557 33.2793C494.147 34.3435 493.897 35.4852 493.709 36.6148C493.521 37.7494 493.498 38.9112 493.4 40.0609C493.375 40.3607 493.425 40.7067 493.291 40.9461C493.14 41.2147 492.822 41.5476 492.567 41.5547C492.331 41.5617 491.932 41.2167 491.867 40.9602C491.698 40.2842 491.671 39.5731 491.59 38.876C491.395 37.2324 491.251 35.5807 490.995 33.9472C490.749 32.374 490.433 32.1507 488.815 32.0511C488.165 32.0109 487.494 32.0602 486.869 31.9113C486.498 31.8228 486.199 31.4295 485.867 31.173C486.135 30.8511 486.374 30.4991 486.681 30.2204C486.854 30.0635 487.136 30.0223 487.371 29.9368C488.88 29.3845 489.748 28.268 490.02 26.732C490.292 25.2031 490.43 23.65 490.661 22.113C490.75 21.5226 490.851 20.908 491.1 20.3749C491.458 19.6054 492.353 19.6265 492.732 20.3829C492.909 20.736 492.974 21.1464 493.086 21.5306C493.564 23.1672 494.049 24.8018 494.518 26.4413C495.002 28.1332 496.14 29.0305 497.857 29.2558C498.403 29.3272 498.959 29.3866 499.486 29.5364C499.722 29.6038 499.9 29.8794 500.086 30.0454L500.085 30.0424ZM492.547 33.6887C493.034 32.8407 493.323 32.1919 493.743 31.6447C494.193 31.0593 494.765 30.5675 495.354 29.9639C493.171 28.6945 493.03 26.2502 492.045 24.0443C491.797 25.3741 491.712 26.4846 491.364 27.5046C491.005 28.5567 490.389 29.5213 489.85 30.5916C491.474 30.835 492.227 31.9294 492.547 33.6887Z" fill="#C8E8C3"/>
<path d="M208.178 43.0509C208.052 43.1814 207.93 43.4041 207.745 43.4816C207.283 43.6759 206.803 43.8693 206.312 43.9461C205.155 44.1281 204.429 44.7484 204.295 45.8708C204.106 47.4654 204.017 49.0715 203.894 50.673C203.867 51.0162 203.894 51.364 203.867 51.708C203.839 52.0926 203.642 52.4335 203.224 52.3406C203.003 52.2914 202.715 51.9544 202.692 51.7248C202.593 50.7345 202.578 49.7356 202.539 48.7399C202.495 47.6289 202.502 46.5142 202.406 45.4079C202.319 44.4029 202.199 44.3369 201.194 44.224C200.65 44.1626 200.097 44.1403 199.566 44.0244C199.342 43.9753 198.998 43.7265 199 43.5737C199.005 43.3296 199.222 43.0624 199.41 42.8582C199.529 42.7285 199.752 42.6786 199.938 42.6225C201.304 42.211 201.997 41.2513 202.106 39.9124C202.212 38.6157 202.197 37.3105 202.256 36.01C202.279 35.5155 202.298 35.0065 202.438 34.539C202.508 34.3056 202.85 33.997 203.063 34C203.282 34.0039 203.633 34.3171 203.686 34.5482C203.953 35.7052 204.118 36.8837 204.363 38.046C204.568 39.0195 204.787 39.9945 205.086 40.9427C205.39 41.9047 206.019 42.5219 207.164 42.4283C207.592 42.393 208.048 42.4068 208.177 43.0517L208.178 43.0509ZM203.465 40.1504C202.989 41.1185 202.514 42.0843 202.065 42.9964C202.521 43.3496 203.05 43.7595 203.594 44.181C204.005 43.8332 204.495 43.4187 204.919 43.0594C204.424 42.0674 203.938 41.0962 203.465 40.1504Z" fill="#C8E8C3"/>
<path d="M437.722 109.142C437.464 109.514 437.355 109.731 437.189 109.891C437.094 109.982 436.911 110.011 436.766 110.017C434.375 110.117 433.877 111.246 433.603 113.609C433.464 114.806 433.383 116.01 433.261 117.209C433.214 117.658 433.206 118.14 433.025 118.536C432.884 118.845 432.5 119.237 432.229 119.234C431.973 119.231 431.555 118.79 431.501 118.488C431.334 117.552 431.307 116.593 431.226 115.641C431.102 114.191 431.042 112.731 430.84 111.292C430.626 109.767 430.256 109.466 428.739 109.205C428.492 109.161 428.237 109.147 427.996 109.084C426.941 108.807 426.641 108.008 427.502 107.362C429.573 105.81 429.859 103.625 429.955 101.324C429.992 100.471 429.991 99.6156 430.018 98.7616C430.029 98.4116 429.973 98.0132 430.12 97.7256C430.28 97.4127 430.63 97.0144 430.915 97.0003C431.181 96.9872 431.634 97.3836 431.717 97.6793C432.01 98.7415 432.17 99.8389 432.403 100.919C432.731 102.44 433.033 103.968 433.429 105.472C433.855 107.097 434.786 108.238 436.59 108.484C436.961 108.535 437.291 108.882 437.722 109.141V109.142ZM434.011 109.046C432.357 107.759 432.014 105.852 431.429 104.058C430.822 105.339 430.261 106.525 429.674 107.764C431.408 108.095 432.018 109.452 432.432 111.014C432.985 110.325 433.449 109.747 434.011 109.046Z" fill="#C8E8C3"/>
<path d="M4.52343 84C4.964 84.5834 5.31505 84.8781 5.43777 85.2483C5.65604 85.9102 5.6993 86.6274 5.88337 87.3033C6.22436 88.5576 6.53217 89.8311 7.00694 91.0371C7.55313 92.4242 8.4896 93.4241 10.1734 93.3195C10.3666 93.3074 10.6372 93.3195 10.7458 93.4372C10.961 93.6705 11.1984 93.9803 11.2115 94.268C11.2206 94.4652 10.9017 94.7629 10.6653 94.8635C10.4078 94.9731 10.0759 94.9108 9.77612 94.9158C8.0782 94.9399 7.24433 95.5978 7.08138 97.2897C6.92748 98.884 6.94156 100.493 6.88624 102.097C6.87014 102.547 6.95564 103.024 6.83493 103.443C6.74239 103.766 6.44566 104.188 6.15899 104.264C5.62185 104.407 5.37239 103.961 5.29695 103.467C5.18328 102.723 5.10885 101.973 4.97607 101.233C4.72863 99.8516 4.50029 98.4635 4.17338 97.1006C3.85854 95.7869 3.76801 95.7698 2.44629 95.7044C1.94536 95.6793 1.42834 95.6994 0.95256 95.5706C0.611568 95.4781 0.171999 95.2357 0.053305 94.947C-0.150888 94.4531 0.267554 94.1322 0.69807 93.917C0.743335 93.8948 0.78659 93.8687 0.832861 93.8506C2.76314 93.1052 3.2872 91.4777 3.43808 89.641C3.55275 88.2408 3.56684 86.8315 3.72275 85.4364C3.76902 85.027 4.14723 84.6548 4.52644 84H4.52343ZM5.02837 90.6529C4.55461 91.7754 4.07983 92.901 3.64529 93.932C4.33834 94.5989 5.02838 95.2628 5.67918 95.8885C6.14289 95.2477 6.63074 94.5748 7.07735 93.9582C6.38632 92.8427 5.71338 91.7573 5.02837 90.6529Z" fill="#C8E8C3"/>
<path d="M354.103 11.0004C353.24 10.9421 352.573 10.9803 351.955 10.8244C351.578 10.7298 351.068 10.3778 351.005 10.0639C350.95 9.79234 351.375 9.22503 351.702 9.10734C353.522 8.45553 353.999 7.00606 354.115 5.31317C354.201 4.06185 354.244 2.80853 354.322 1.55722C354.344 1.20918 354.339 0.814878 354.503 0.532226C354.65 0.277739 354.998 0.0323046 355.281 0.0011224C355.478 -0.0210069 355.847 0.288801 355.912 0.514118C356.089 1.13676 356.152 1.79259 356.249 2.43635C356.464 3.87476 356.629 5.32121 356.895 6.74956C357.182 8.28051 357.861 8.86593 359.41 9.09829C359.654 9.1345 359.925 9.10935 360.14 9.20692C360.636 9.43224 360.694 10.1283 360.253 10.4431C360.097 10.5548 359.887 10.6504 359.702 10.6504C358.08 10.6554 357.594 11.7307 357.392 13.0725C357.124 14.8559 356.864 16.6414 356.607 18.4268C356.563 18.7245 356.576 19.0313 356.516 19.325C356.42 19.7958 356.175 20.2686 355.647 20.1438C355.362 20.0764 355.002 19.6258 354.969 19.316C354.763 17.4219 354.657 15.5178 354.482 13.6207C354.405 12.7828 354.244 11.952 354.104 11.0014L354.103 11.0004ZM356.961 9.93115C356.407 9.11941 355.898 8.37104 355.353 7.57036C355.01 8.16785 354.694 8.71706 354.464 9.11941C355.03 10.0317 355.543 10.8596 356.065 11.7005C356.366 11.106 356.655 10.5367 356.961 9.93115Z" fill="#C8E8C3"/>
<path d="M513.97 40.353C512.969 40.1448 512.24 40.8006 511.691 41.8206C510.882 43.3254 510.63 44.9398 510.674 46.6196C510.686 47.0703 510.753 47.5229 510.731 47.9715C510.708 48.4373 510.572 48.9694 509.992 48.8849C509.696 48.8416 509.374 48.4584 509.213 48.1506C509.062 47.8599 509.115 47.4656 509.064 47.1186C508.772 45.0847 508.531 43.0417 508.161 41.0219C507.912 39.659 507.764 39.6177 506.394 39.4236C505.996 39.3673 505.565 39.3673 505.22 39.1983C504.954 39.0685 504.686 38.7336 504.635 38.4519C504.601 38.2598 504.918 37.8242 505.117 37.7981C507.198 37.5235 507.324 35.9101 507.566 34.3509C507.674 33.6579 507.793 32.9618 507.977 32.2869C508.133 31.7145 508.308 31.0336 509.11 31.1221C509.795 31.1975 509.886 31.793 509.981 32.3583C510.163 33.4457 510.31 34.5451 510.591 35.6083C510.779 36.3205 511.089 37.0356 511.498 37.6462C512.018 38.4217 512.753 38.9146 513.8 38.7476C514.232 38.6782 514.728 38.7044 515.133 38.8563C515.443 38.973 515.847 39.3401 515.865 39.6187C515.896 40.0935 515.511 40.4204 514.972 40.4174C514.721 40.4154 514.472 40.3882 513.971 40.356L513.97 40.353ZM509.974 41.6164C510.509 40.8097 510.906 40.2112 511.169 39.8149C510.332 38.467 509.606 37.2992 508.868 36.1092C508.624 36.7419 508.365 37.4078 508.08 38.1471C509.388 38.8221 509.472 40.1579 509.974 41.6164Z" fill="#C8E8C3"/>
</svg>
